# Max2Obj Version 4.0 Mar 10th, 2001
#
# object 02_-_Default to come ...
#
v  1.123435 2.487092 -13.578668
v  1.143790 2.478076 -12.401318
v  1.164145 2.469059 -11.223967
v  1.123378 1.309565 -13.587684
v  1.143734 1.300549 -12.410334
v  1.164089 1.291533 -11.232984
v  1.123322 0.132039 -13.596701
v  1.143677 0.123023 -12.419350
v  1.164032 0.114007 -11.242000
# 9 vertices

vt  0.000000 0.000000 0.000000
vt  0.500000 0.000000 0.000000
vt  1.000000 0.000000 0.000000
vt  0.000000 0.000000 0.000000
vt  0.500000 0.000000 0.000000
vt  1.000000 0.000000 0.000000
vt  0.000000 0.000000 0.000000
vt  0.500000 0.000000 0.000000
vt  1.000000 0.000000 0.000000
vt  0.000000 0.500000 0.000000
vt  0.500000 0.500000 0.000000
vt  1.000000 0.500000 0.000000
vt  0.000000 1.000000 0.000000
vt  0.500000 1.000000 0.000000
vt  1.000000 1.000000 0.000000
# 15 texture vertices

vn  0.788279 0.000066 -0.013628
vn  0.788279 0.000066 -0.013628
vn  0.788279 0.000066 -0.013628
vn  0.788279 0.000066 -0.013628
vn  0.788279 0.000066 -0.013628
vn  0.788279 0.000066 -0.013628
vn  0.788279 0.000066 -0.013628
vn  0.788279 0.000066 -0.013628
vn  0.788279 0.000066 -0.013628
# 9 vertex normals

g 02_-_Default
s 1
f 1/7/1 2/8/2 5/11/5 4/10/4
f 2/8/2 3/9/3 6/12/6 5/11/5
f 4/10/4 5/11/5 8/14/8 7/13/7
f 5/11/5 6/12/6 9/15/9 8/14/8
# 4 faces

g
# object 02_-_Default to come ...
#
v  2.776809 2.487231 -13.607252
v  2.797164 2.478215 -12.429902
v  2.817519 2.469199 -11.252552
v  2.776752 1.309705 -13.616268
v  2.797107 1.300689 -12.438918
v  2.817463 1.291673 -11.261568
v  2.776695 0.132179 -13.625284
v  2.797051 0.123163 -12.447934
v  2.817406 0.114147 -11.270584
# 9 vertices

vt  0.000000 0.000000 0.000000
vt  0.500000 0.000000 0.000000
vt  1.000000 0.000000 0.000000
vt  0.000000 0.000000 0.000000
vt  0.500000 0.000000 0.000000
vt  1.000000 0.000000 0.000000
vt  0.000000 0.000000 0.000000
vt  0.500000 0.000000 0.000000
vt  1.000000 0.000000 0.000000
vt  0.000000 0.500000 0.000000
vt  0.500000 0.500000 0.000000
vt  1.000000 0.500000 0.000000
vt  0.000000 1.000000 0.000000
vt  0.500000 1.000000 0.000000
vt  1.000000 1.000000 0.000000
# 15 texture vertices

vn  0.788279 0.000066 -0.013628
vn  0.788279 0.000066 -0.013628
vn  0.788279 0.000066 -0.013628
vn  0.788279 0.000066 -0.013628
vn  0.788279 0.000066 -0.013628
vn  0.788279 0.000066 -0.013628
vn  0.788279 0.000066 -0.013628
vn  0.788279 0.000066 -0.013628
vn  0.788279 0.000066 -0.013628
# 9 vertex normals

g 02_-_Default
s 1
f 10/22/10 11/23/11 14/26/14 13/25/13
f 11/23/11 12/24/12 15/27/15 14/26/14
f 13/25/13 14/26/14 17/29/17 16/28/16
f 14/26/14 15/27/15 18/30/18 17/29/17
# 4 faces

g
# object 02_-_Default to come ...
#
v  3.162544 2.510374 -11.588796
v  3.162488 1.332848 -11.597812
v  3.162431 0.155322 -11.606828
v  1.985159 2.510275 -11.568440
v  1.985103 1.332749 -11.577456
v  1.985046 0.155223 -11.586473
v  0.807775 2.510176 -11.548085
v  0.807718 1.332650 -11.557101
v  0.807662 0.155123 -11.566117
# 9 vertices

vt  0.000000 0.000000 0.000000
vt  0.500000 0.000000 0.000000
vt  1.000000 0.000000 0.000000
vt  0.000000 0.000000 0.000000
vt  0.500000 0.000000 0.000000
vt  1.000000 0.000000 0.000000
vt  0.000000 0.000000 0.000000
vt  0.500000 0.000000 0.000000
vt  1.000000 0.000000 0.000000
vt  0.000000 0.500000 0.000000
vt  0.500000 0.500000 0.000000
vt  1.000000 0.500000 0.000000
vt  0.000000 1.000000 0.000000
vt  0.500000 1.000000 0.000000
vt  1.000000 1.000000 0.000000
# 15 texture vertices

vn  -0.013628 0.006036 -0.788256
vn  -0.013628 0.006036 -0.788256
vn  -0.013628 0.006036 -0.788256
vn  -0.013628 0.006036 -0.788256
vn  -0.013628 0.006036 -0.788256
vn  -0.013628 0.006036 -0.788256
vn  -0.013628 0.006036 -0.788256
vn  -0.013628 0.006036 -0.788256
vn  -0.013628 0.006036 -0.788256
# 9 vertex normals

g 02_-_Default
s 1
f 19/37/19 20/38/20 23/41/23 22/40/22
f 20/38/20 21/39/21 24/42/24 23/41/23
f 22/40/22 23/41/23 26/44/26 25/43/25
f 23/41/23 24/42/24 27/45/27 26/44/26
# 4 faces

g
# object 02_-_Default to come ...
#
v  3.127528 2.136558 -13.616000
v  3.147884 2.127542 -12.438650
v  3.168239 2.118526 -11.261300
v  1.950144 2.136459 -13.595645
v  1.970499 2.127443 -12.418295
v  1.990854 2.118427 -11.240945
v  0.772759 2.136359 -13.575290
v  0.793114 2.127343 -12.397940
v  0.813470 2.118327 -11.220590
# 9 vertices

vt  0.000000 0.000000 0.000000
vt  0.500000 0.000000 0.000000
vt  1.000000 0.000000 0.000000
vt  0.000000 0.000000 0.000000
vt  0.500000 0.000000 0.000000
vt  1.000000 0.000000 0.000000
vt  0.000000 0.000000 0.000000
vt  0.500000 0.000000 0.000000
vt  1.000000 0.000000 0.000000
vt  0.000000 0.500000 0.000000
vt  0.500000 0.500000 0.000000
vt  1.000000 0.500000 0.000000
vt  0.000000 1.000000 0.000000
vt  0.500000 1.000000 0.000000
vt  1.000000 1.000000 0.000000
# 15 texture vertices

vn  -0.000038 -0.788374 -0.006037
vn  -0.000038 -0.788374 -0.006037
vn  -0.000038 -0.788374 -0.006037
vn  -0.000038 -0.788374 -0.006037
vn  -0.000038 -0.788374 -0.006037
vn  -0.000038 -0.788374 -0.006037
vn  -0.000038 -0.788374 -0.006037
vn  -0.000038 -0.788374 -0.006037
vn  -0.000038 -0.788374 -0.006037
# 9 vertex normals

g 02_-_Default
s 1
f 28/52/28 29/53/29 32/56/32 31/55/31
f 29/53/29 30/54/30 33/57/33 32/56/32
f 31/55/31 32/56/32 35/59/35 34/58/34
f 32/56/32 33/57/33 36/60/36 35/59/35
# 4 faces

g
# object 02_-_Default to come ...
#
v  3.127449 0.482986 -13.628662
v  3.147804 0.473970 -12.451312
v  3.168159 0.464954 -11.273962
v  1.950064 0.482887 -13.608307
v  1.970420 0.473871 -12.430957
v  1.990775 0.464855 -11.253607
v  0.772680 0.482788 -13.587952
v  0.793035 0.473772 -12.410602
v  0.813390 0.464755 -11.233252
# 9 vertices

vt  0.000000 0.000000 0.000000
vt  0.500000 0.000000 0.000000
vt  1.000000 0.000000 0.000000
vt  0.000000 0.000000 0.000000
vt  0.500000 0.000000 0.000000
vt  1.000000 0.000000 0.000000
vt  0.000000 0.000000 0.000000
vt  0.500000 0.000000 0.000000
vt  1.000000 0.000000 0.000000
vt  0.000000 0.500000 0.000000
vt  0.500000 0.500000 0.000000
vt  1.000000 0.500000 0.000000
vt  0.000000 1.000000 0.000000
vt  0.500000 1.000000 0.000000
vt  1.000000 1.000000 0.000000
# 15 texture vertices

vn  -0.000038 -0.788374 -0.006037
vn  -0.000038 -0.788374 -0.006037
vn  -0.000038 -0.788374 -0.006037
vn  -0.000038 -0.788374 -0.006037
vn  -0.000038 -0.788374 -0.006037
vn  -0.000038 -0.788374 -0.006037
vn  -0.000038 -0.788374 -0.006037
vn  -0.000038 -0.788374 -0.006037
vn  -0.000038 -0.788374 -0.006037
# 9 vertex normals

g 02_-_Default
s 1
f 37/67/37 38/68/38 41/71/41 40/70/40
f 38/68/38 39/69/39 42/72/42 41/71/41
f 40/70/40 41/71/41 44/74/44 43/73/43
f 41/71/41 42/72/42 45/75/45 44/74/44
# 4 faces

g
# object 02_-_Default to come ...
#
v  3.134486 2.522802 -13.211663
v  3.134429 1.345276 -13.220679
v  3.134373 0.167750 -13.229695
v  1.957101 2.522703 -13.191308
v  1.957045 1.345177 -13.200324
v  1.956988 0.167650 -13.209340
v  0.779717 2.522604 -13.170953
v  0.779660 1.345077 -13.179969
v  0.779604 0.167551 -13.188985
# 9 vertices

vt  0.000000 0.000000 0.000000
vt  0.500000 0.000000 0.000000
vt  1.000000 0.000000 0.000000
vt  0.000000 0.000000 0.000000
vt  0.500000 0.000000 0.000000
vt  1.000000 0.000000 0.000000
vt  0.000000 0.000000 0.000000
vt  0.500000 0.000000 0.000000
vt  1.000000 0.000000 0.000000
vt  0.000000 0.500000 0.000000
vt  0.500000 0.500000 0.000000
vt  1.000000 0.500000 0.000000
vt  0.000000 1.000000 0.000000
vt  0.500000 1.000000 0.000000
vt  1.000000 1.000000 0.000000
# 15 texture vertices

vn  -0.013628 0.006036 -0.788256
vn  -0.013628 0.006036 -0.788256
vn  -0.013628 0.006036 -0.788256
vn  -0.013628 0.006036 -0.788256
vn  -0.013628 0.006036 -0.788256
vn  -0.013628 0.006036 -0.788256
vn  -0.013628 0.006036 -0.788256
vn  -0.013628 0.006036 -0.788256
vn  -0.013628 0.006036 -0.788256
# 9 vertex normals

g 02_-_Default
s 1
f 46/82/46 47/83/47 50/86/50 49/85/49
f 47/83/47 48/84/48 51/87/51 50/86/50
f 49/85/49 50/86/50 53/89/53 52/88/52
f 50/86/50 51/87/51 54/90/54 53/89/53
# 4 faces

g
